<svg xmlns="http://www.w3.org/2000/svg" xmlns:xlink="http://www.w3.org/1999/xlink" width="128" zoomAndPan="magnify" viewBox="0 0 96 30.000001" height="40" preserveAspectRatio="xMidYMid meet" version="1.0"><defs><g/><clipPath id="4702c733f5"><path d="M 5 0 L 91 0 L 91 29.03125 L 5 29.03125 Z M 5 0 " clip-rule="nonzero"/></clipPath><clipPath id="f39a6ac4d2"><path d="M 0.984375 6.085938 L 15.929688 6.085938 L 15.929688 21.035156 L 0.984375 21.035156 Z M 0.984375 6.085938 " clip-rule="nonzero"/></clipPath><clipPath id="680d09166d"><path d="M 8.457031 6.085938 C 4.332031 6.085938 0.984375 9.433594 0.984375 13.558594 C 0.984375 17.6875 4.332031 21.035156 8.457031 21.035156 C 12.585938 21.035156 15.929688 17.6875 15.929688 13.558594 C 15.929688 9.433594 12.585938 6.085938 8.457031 6.085938 Z M 8.457031 6.085938 " clip-rule="nonzero"/></clipPath><clipPath id="9b7ee4d4eb"><path d="M 0.984375 0.0859375 L 15.929688 0.0859375 L 15.929688 15.035156 L 0.984375 15.035156 Z M 0.984375 0.0859375 " clip-rule="nonzero"/></clipPath><clipPath id="4349baf28e"><path d="M 8.457031 0.0859375 C 4.332031 0.0859375 0.984375 3.433594 0.984375 7.558594 C 0.984375 11.6875 4.332031 15.035156 8.457031 15.035156 C 12.585938 15.035156 15.929688 11.6875 15.929688 7.558594 C 15.929688 3.433594 12.585938 0.0859375 8.457031 0.0859375 Z M 8.457031 0.0859375 " clip-rule="nonzero"/></clipPath><clipPath id="9d964b6cd7"><rect x="0" width="16" y="0" height="16"/></clipPath><clipPath id="c66b1a1a6f"><path d="M 38.195312 15.316406 L 48.214844 15.316406 L 48.214844 22.957031 L 38.195312 22.957031 Z M 38.195312 15.316406 " clip-rule="nonzero"/></clipPath><clipPath id="a6b4521762"><path d="M 0.195312 0.316406 L 10.214844 0.316406 L 10.214844 7.957031 L 0.195312 7.957031 Z M 0.195312 0.316406 " clip-rule="nonzero"/></clipPath><linearGradient x1="0.00641376" gradientTransform="matrix(0.029838, 0, 0, 0.029838, 0.195368, 0.31662)" y1="128" x2="335.79401" gradientUnits="userSpaceOnUse" y2="128" id="08c2c1075b"><stop stop-opacity="1" stop-color="rgb(0%, 59.21936%, 69.798279%)" offset="0"/><stop stop-opacity="1" stop-color="rgb(0.192261%, 59.320068%, 69.659424%)" offset="0.0078125"/><stop stop-opacity="1" stop-color="rgb(0.578308%, 59.52301%, 69.380188%)" offset="0.015625"/><stop stop-opacity="1" stop-color="rgb(0.964355%, 59.724426%, 69.100952%)" offset="0.0234375"/><stop stop-opacity="1" stop-color="rgb(1.350403%, 59.927368%, 68.821716%)" offset="0.03125"/><stop stop-opacity="1" stop-color="rgb(1.73645%, 60.128784%, 68.544006%)" offset="0.0390625"/><stop stop-opacity="1" stop-color="rgb(2.122498%, 60.331726%, 68.264771%)" offset="0.046875"/><stop stop-opacity="1" stop-color="rgb(2.508545%, 60.533142%, 67.985535%)" offset="0.0546875"/><stop stop-opacity="1" stop-color="rgb(2.894592%, 60.736084%, 67.707825%)" offset="0.0625"/><stop stop-opacity="1" stop-color="rgb(3.28064%, 60.9375%, 67.428589%)" offset="0.0703125"/><stop stop-opacity="1" stop-color="rgb(3.666687%, 61.140442%, 67.149353%)" offset="0.078125"/><stop stop-opacity="1" stop-color="rgb(4.052734%, 61.341858%, 66.871643%)" offset="0.0859375"/><stop stop-opacity="1" stop-color="rgb(4.438782%, 61.5448%, 66.592407%)" offset="0.09375"/><stop stop-opacity="1" stop-color="rgb(4.824829%, 61.746216%, 66.313171%)" offset="0.101562"/><stop stop-opacity="1" stop-color="rgb(5.210876%, 61.949158%, 66.035461%)" offset="0.109375"/><stop stop-opacity="1" stop-color="rgb(5.596924%, 62.150574%, 65.756226%)" offset="0.117187"/><stop stop-opacity="1" stop-color="rgb(5.982971%, 62.353516%, 65.47699%)" offset="0.125"/><stop stop-opacity="1" stop-color="rgb(6.369019%, 62.554932%, 65.19928%)" offset="0.132812"/><stop stop-opacity="1" stop-color="rgb(6.755066%, 62.757874%, 64.920044%)" offset="0.140625"/><stop stop-opacity="1" stop-color="rgb(7.141113%, 62.95929%, 64.640808%)" offset="0.148437"/><stop stop-opacity="1" stop-color="rgb(7.527161%, 63.162231%, 64.363098%)" offset="0.15625"/><stop stop-opacity="1" stop-color="rgb(7.913208%, 63.363647%, 64.083862%)" offset="0.164062"/><stop stop-opacity="1" stop-color="rgb(8.299255%, 63.566589%, 63.804626%)" offset="0.171875"/><stop stop-opacity="1" stop-color="rgb(8.685303%, 63.768005%, 63.526917%)" offset="0.179688"/><stop stop-opacity="1" stop-color="rgb(9.07135%, 63.970947%, 63.247681%)" offset="0.1875"/><stop stop-opacity="1" stop-color="rgb(9.457397%, 64.172363%, 62.968445%)" offset="0.195312"/><stop stop-opacity="1" stop-color="rgb(9.841919%, 64.375305%, 62.690735%)" offset="0.203125"/><stop stop-opacity="1" stop-color="rgb(10.227966%, 64.576721%, 62.411499%)" offset="0.210937"/><stop stop-opacity="1" stop-color="rgb(10.614014%, 64.779663%, 62.132263%)" offset="0.21875"/><stop stop-opacity="1" stop-color="rgb(11.000061%, 64.981079%, 61.854553%)" offset="0.226562"/><stop stop-opacity="1" stop-color="rgb(11.386108%, 65.184021%, 61.575317%)" offset="0.234375"/><stop stop-opacity="1" stop-color="rgb(11.772156%, 65.385437%, 61.296082%)" offset="0.242187"/><stop stop-opacity="1" stop-color="rgb(12.158203%, 65.588379%, 61.016846%)" offset="0.25"/><stop stop-opacity="1" stop-color="rgb(12.54425%, 65.789795%, 60.739136%)" offset="0.257812"/><stop stop-opacity="1" stop-color="rgb(12.930298%, 65.992737%, 60.4599%)" offset="0.265625"/><stop stop-opacity="1" stop-color="rgb(13.316345%, 66.194153%, 60.180664%)" offset="0.273438"/><stop stop-opacity="1" stop-color="rgb(13.702393%, 66.397095%, 59.902954%)" offset="0.28125"/><stop stop-opacity="1" stop-color="rgb(14.08844%, 66.598511%, 59.623718%)" offset="0.289062"/><stop stop-opacity="1" stop-color="rgb(14.474487%, 66.801453%, 59.344482%)" offset="0.296875"/><stop stop-opacity="1" stop-color="rgb(14.860535%, 67.002869%, 59.066772%)" offset="0.304688"/><stop stop-opacity="1" stop-color="rgb(15.246582%, 67.205811%, 58.787537%)" offset="0.3125"/><stop stop-opacity="1" stop-color="rgb(15.632629%, 67.407227%, 58.508301%)" offset="0.320312"/><stop stop-opacity="1" stop-color="rgb(16.018677%, 67.610168%, 58.230591%)" offset="0.328125"/><stop stop-opacity="1" stop-color="rgb(16.404724%, 67.811584%, 57.951355%)" offset="0.335937"/><stop stop-opacity="1" stop-color="rgb(16.790771%, 68.014526%, 57.672119%)" offset="0.34375"/><stop stop-opacity="1" stop-color="rgb(17.176819%, 68.215942%, 57.394409%)" offset="0.351562"/><stop stop-opacity="1" stop-color="rgb(17.562866%, 68.418884%, 57.115173%)" offset="0.359375"/><stop stop-opacity="1" stop-color="rgb(17.948914%, 68.6203%, 56.835938%)" offset="0.367188"/><stop stop-opacity="1" stop-color="rgb(18.334961%, 68.823242%, 56.558228%)" offset="0.375"/><stop stop-opacity="1" stop-color="rgb(18.721008%, 69.024658%, 56.278992%)" offset="0.382812"/><stop stop-opacity="1" stop-color="rgb(19.107056%, 69.2276%, 55.999756%)" offset="0.390625"/><stop stop-opacity="1" stop-color="rgb(19.493103%, 69.429016%, 55.722046%)" offset="0.398437"/><stop stop-opacity="1" stop-color="rgb(19.87915%, 69.631958%, 55.44281%)" offset="0.40625"/><stop stop-opacity="1" stop-color="rgb(20.265198%, 69.833374%, 55.163574%)" offset="0.414062"/><stop stop-opacity="1" stop-color="rgb(20.651245%, 70.036316%, 54.885864%)" offset="0.421875"/><stop stop-opacity="1" stop-color="rgb(21.037292%, 70.237732%, 54.606628%)" offset="0.429687"/><stop stop-opacity="1" stop-color="rgb(21.42334%, 70.440674%, 54.327393%)" offset="0.4375"/><stop stop-opacity="1" stop-color="rgb(21.809387%, 70.64209%, 54.049683%)" offset="0.445312"/><stop stop-opacity="1" stop-color="rgb(22.195435%, 70.845032%, 53.770447%)" offset="0.453125"/><stop stop-opacity="1" stop-color="rgb(22.581482%, 71.046448%, 53.491211%)" offset="0.460938"/><stop stop-opacity="1" stop-color="rgb(22.967529%, 71.24939%, 53.211975%)" offset="0.46875"/><stop stop-opacity="1" stop-color="rgb(23.353577%, 71.450806%, 52.934265%)" offset="0.476562"/><stop stop-opacity="1" stop-color="rgb(23.739624%, 71.653748%, 52.655029%)" offset="0.484375"/><stop stop-opacity="1" stop-color="rgb(24.125671%, 71.855164%, 52.375793%)" offset="0.492187"/><stop stop-opacity="1" stop-color="rgb(24.511719%, 72.058105%, 52.098083%)" offset="0.5"/><stop stop-opacity="1" stop-color="rgb(24.89624%, 72.259521%, 51.818848%)" offset="0.507812"/><stop stop-opacity="1" stop-color="rgb(25.282288%, 72.462463%, 51.539612%)" offset="0.515625"/><stop stop-opacity="1" stop-color="rgb(25.668335%, 72.663879%, 51.261902%)" offset="0.523437"/><stop stop-opacity="1" stop-color="rgb(26.054382%, 72.866821%, 50.982666%)" offset="0.53125"/><stop stop-opacity="1" stop-color="rgb(26.44043%, 73.068237%, 50.70343%)" offset="0.539062"/><stop stop-opacity="1" stop-color="rgb(26.826477%, 73.271179%, 50.42572%)" offset="0.546875"/><stop stop-opacity="1" stop-color="rgb(27.212524%, 73.472595%, 50.146484%)" offset="0.554688"/><stop stop-opacity="1" stop-color="rgb(27.598572%, 73.675537%, 49.867249%)" offset="0.5625"/><stop stop-opacity="1" stop-color="rgb(27.984619%, 73.876953%, 49.589539%)" offset="0.570312"/><stop stop-opacity="1" stop-color="rgb(28.370667%, 74.079895%, 49.310303%)" offset="0.578125"/><stop stop-opacity="1" stop-color="rgb(28.756714%, 74.281311%, 49.031067%)" offset="0.585937"/><stop stop-opacity="1" stop-color="rgb(29.142761%, 74.484253%, 48.753357%)" offset="0.59375"/><stop stop-opacity="1" stop-color="rgb(29.528809%, 74.685669%, 48.474121%)" offset="0.601562"/><stop stop-opacity="1" stop-color="rgb(29.914856%, 74.888611%, 48.194885%)" offset="0.609375"/><stop stop-opacity="1" stop-color="rgb(30.300903%, 75.090027%, 47.917175%)" offset="0.617187"/><stop stop-opacity="1" stop-color="rgb(30.686951%, 75.292969%, 47.637939%)" offset="0.625"/><stop stop-opacity="1" stop-color="rgb(31.072998%, 75.494385%, 47.358704%)" offset="0.632812"/><stop stop-opacity="1" stop-color="rgb(31.459045%, 75.697327%, 47.080994%)" offset="0.640625"/><stop stop-opacity="1" stop-color="rgb(31.845093%, 75.898743%, 46.801758%)" offset="0.648437"/><stop stop-opacity="1" stop-color="rgb(32.23114%, 76.101685%, 46.522522%)" offset="0.65625"/><stop stop-opacity="1" stop-color="rgb(32.617188%, 76.304626%, 46.244812%)" offset="0.664062"/><stop stop-opacity="1" stop-color="rgb(33.003235%, 76.506042%, 45.965576%)" offset="0.671875"/><stop stop-opacity="1" stop-color="rgb(33.389282%, 76.708984%, 45.68634%)" offset="0.679687"/><stop stop-opacity="1" stop-color="rgb(33.77533%, 76.9104%, 45.40863%)" offset="0.6875"/><stop stop-opacity="1" stop-color="rgb(34.161377%, 77.113342%, 45.129395%)" offset="0.695312"/><stop stop-opacity="1" stop-color="rgb(34.547424%, 77.314758%, 44.850159%)" offset="0.703125"/><stop stop-opacity="1" stop-color="rgb(34.933472%, 77.5177%, 44.570923%)" offset="0.710937"/><stop stop-opacity="1" stop-color="rgb(35.319519%, 77.719116%, 44.293213%)" offset="0.71875"/><stop stop-opacity="1" stop-color="rgb(35.705566%, 77.922058%, 44.013977%)" offset="0.726562"/><stop stop-opacity="1" stop-color="rgb(36.091614%, 78.123474%, 43.734741%)" offset="0.734375"/><stop stop-opacity="1" stop-color="rgb(36.477661%, 78.326416%, 43.457031%)" offset="0.742187"/><stop stop-opacity="1" stop-color="rgb(36.863708%, 78.527832%, 43.177795%)" offset="0.75"/><stop stop-opacity="1" stop-color="rgb(37.249756%, 78.730774%, 42.89856%)" offset="0.757812"/><stop stop-opacity="1" stop-color="rgb(37.635803%, 78.93219%, 42.62085%)" offset="0.765625"/><stop stop-opacity="1" stop-color="rgb(38.021851%, 79.135132%, 42.341614%)" offset="0.773438"/><stop stop-opacity="1" stop-color="rgb(38.407898%, 79.336548%, 42.062378%)" offset="0.78125"/><stop stop-opacity="1" stop-color="rgb(38.793945%, 79.53949%, 41.784668%)" offset="0.789062"/><stop stop-opacity="1" stop-color="rgb(39.179993%, 79.740906%, 41.505432%)" offset="0.796875"/><stop stop-opacity="1" stop-color="rgb(39.56604%, 79.943848%, 41.226196%)" offset="0.804687"/><stop stop-opacity="1" stop-color="rgb(39.950562%, 80.145264%, 40.948486%)" offset="0.8125"/><stop stop-opacity="1" stop-color="rgb(40.336609%, 80.348206%, 40.66925%)" offset="0.820312"/><stop stop-opacity="1" stop-color="rgb(40.722656%, 80.549622%, 40.390015%)" offset="0.828125"/><stop stop-opacity="1" stop-color="rgb(41.108704%, 80.752563%, 40.112305%)" offset="0.835937"/><stop stop-opacity="1" stop-color="rgb(41.494751%, 80.953979%, 39.833069%)" offset="0.84375"/><stop stop-opacity="1" stop-color="rgb(41.880798%, 81.156921%, 39.553833%)" offset="0.851562"/><stop stop-opacity="1" stop-color="rgb(42.266846%, 81.358337%, 39.276123%)" offset="0.859375"/><stop stop-opacity="1" stop-color="rgb(42.652893%, 81.561279%, 38.996887%)" offset="0.867187"/><stop stop-opacity="1" stop-color="rgb(43.03894%, 81.762695%, 38.717651%)" offset="0.875"/><stop stop-opacity="1" stop-color="rgb(43.424988%, 81.965637%, 38.439941%)" offset="0.882812"/><stop stop-opacity="1" stop-color="rgb(43.811035%, 82.167053%, 38.160706%)" offset="0.890625"/><stop stop-opacity="1" stop-color="rgb(44.197083%, 82.369995%, 37.88147%)" offset="0.898438"/><stop stop-opacity="1" stop-color="rgb(44.58313%, 82.571411%, 37.60376%)" offset="0.90625"/><stop stop-opacity="1" stop-color="rgb(44.969177%, 82.774353%, 37.324524%)" offset="0.914062"/><stop stop-opacity="1" stop-color="rgb(45.355225%, 82.975769%, 37.045288%)" offset="0.921875"/><stop stop-opacity="1" stop-color="rgb(45.741272%, 83.178711%, 36.766052%)" offset="0.929688"/><stop stop-opacity="1" stop-color="rgb(46.127319%, 83.380127%, 36.488342%)" offset="0.9375"/><stop stop-opacity="1" stop-color="rgb(46.513367%, 83.583069%, 36.209106%)" offset="0.945312"/><stop stop-opacity="1" stop-color="rgb(46.899414%, 83.784485%, 35.929871%)" offset="0.953125"/><stop stop-opacity="1" stop-color="rgb(47.285461%, 83.987427%, 35.652161%)" offset="0.960937"/><stop stop-opacity="1" stop-color="rgb(47.671509%, 84.188843%, 35.372925%)" offset="0.96875"/><stop stop-opacity="1" stop-color="rgb(48.057556%, 84.391785%, 35.093689%)" offset="0.976562"/><stop stop-opacity="1" stop-color="rgb(48.443604%, 84.593201%, 34.815979%)" offset="0.984375"/><stop stop-opacity="1" stop-color="rgb(48.829651%, 84.796143%, 34.536743%)" offset="0.992188"/><stop stop-opacity="1" stop-color="rgb(49.215698%, 84.997559%, 34.257507%)" offset="1"/></linearGradient><clipPath id="c0233254a8"><rect x="0" width="11" y="0" height="8"/></clipPath><clipPath id="bf9afa3d75"><path d="M 4 0 L 21 0 L 21 29.03125 L 4 29.03125 Z M 4 0 " clip-rule="nonzero"/></clipPath><clipPath id="0eff119d0c"><path d="M 0.445312 11 L 16 11 L 16 29 L 0.445312 29 Z M 0.445312 11 " clip-rule="nonzero"/></clipPath><clipPath id="dde30787be"><rect x="0" width="17" y="0" height="30"/></clipPath><clipPath id="91a8f0a3bd"><path d="M 15 0 L 33 0 L 33 29.03125 L 15 29.03125 Z M 15 0 " clip-rule="nonzero"/></clipPath><clipPath id="25776192ce"><path d="M 0.59375 3 L 17.546875 3 L 17.546875 21 L 0.59375 21 Z M 0.59375 3 " clip-rule="nonzero"/></clipPath><clipPath id="d235cef920"><rect x="0" width="18" y="0" height="30"/></clipPath><clipPath id="29661ac84e"><path d="M 31 0 L 46 0 L 46 29.03125 L 31 29.03125 Z M 31 0 " clip-rule="nonzero"/></clipPath><clipPath id="32fbe50ed0"><path d="M 0.386719 10 L 14 10 L 14 23 L 0.386719 23 Z M 0.386719 10 " clip-rule="nonzero"/></clipPath><clipPath id="776d90d0d9"><rect x="0" width="15" y="0" height="30"/></clipPath><clipPath id="0933655e9b"><path d="M 50.824219 0.496094 L 60.800781 0.496094 L 60.800781 16.574219 L 50.824219 16.574219 Z M 50.824219 0.496094 " clip-rule="nonzero"/></clipPath><clipPath id="ddc4d8d501"><path d="M 0.824219 0.496094 L 10.800781 0.496094 L 10.800781 16.574219 L 0.824219 16.574219 Z M 0.824219 0.496094 " clip-rule="nonzero"/></clipPath><clipPath id="d3a3396b63"><rect x="0" width="11" y="0" height="17"/></clipPath><clipPath id="6484b573ed"><path d="M 44 0 L 58 0 L 58 29.03125 L 44 29.03125 Z M 44 0 " clip-rule="nonzero"/></clipPath><clipPath id="fc2e9976ee"><path d="M 0.625 9 L 13 9 L 13 21 L 0.625 21 Z M 0.625 9 " clip-rule="nonzero"/></clipPath><clipPath id="5cedd2e54a"><rect x="0" width="14" y="0" height="30"/></clipPath><clipPath id="072f5c3eb6"><path d="M 53 0 L 74 0 L 74 29.03125 L 53 29.03125 Z M 53 0 " clip-rule="nonzero"/></clipPath><clipPath id="1aa248b380"><path d="M 1 5 L 20.65625 5 L 20.65625 29.03125 L 1 29.03125 Z M 1 5 " clip-rule="nonzero"/></clipPath><clipPath id="bdb53bfeb2"><rect x="0" width="21" y="0" height="30"/></clipPath><clipPath id="efd0493298"><path d="M 68 2 L 85.269531 2 L 85.269531 29.03125 L 68 29.03125 Z M 68 2 " clip-rule="nonzero"/></clipPath><clipPath id="ec79012838"><rect x="0" width="18" y="0" height="28"/></clipPath><clipPath id="ddadaf2655"><path d="M 66.183594 17.046875 L 70.363281 17.046875 L 70.363281 21.226562 L 66.183594 21.226562 Z M 66.183594 17.046875 " clip-rule="nonzero"/></clipPath><clipPath id="95b4d02284"><path d="M 68.273438 17.046875 C 67.121094 17.046875 66.183594 17.980469 66.183594 19.136719 C 66.183594 20.289062 67.121094 21.226562 68.273438 21.226562 C 69.429688 21.226562 70.363281 20.289062 70.363281 19.136719 C 70.363281 17.980469 69.429688 17.046875 68.273438 17.046875 Z M 68.273438 17.046875 " clip-rule="nonzero"/></clipPath><clipPath id="3fd1bb12ec"><path d="M 0.183594 0.046875 L 4.363281 0.046875 L 4.363281 4.226562 L 0.183594 4.226562 Z M 0.183594 0.046875 " clip-rule="nonzero"/></clipPath><clipPath id="beec25b3bb"><path d="M 2.273438 0.046875 C 1.121094 0.046875 0.183594 0.980469 0.183594 2.136719 C 0.183594 3.289062 1.121094 4.226562 2.273438 4.226562 C 3.429688 4.226562 4.363281 3.289062 4.363281 2.136719 C 4.363281 0.980469 3.429688 0.046875 2.273438 0.046875 Z M 2.273438 0.046875 " clip-rule="nonzero"/></clipPath><clipPath id="4ad67c9ab7"><rect x="0" width="5" y="0" height="5"/></clipPath><clipPath id="b5a7bcdbe0"><rect x="0" width="86" y="0" height="30"/></clipPath></defs><g clip-path="url(#4702c733f5)"><g transform="matrix(1, 0, 0, 1, 5, 0.000000000000005692)"><g clip-path="url(#b5a7bcdbe0)"><g clip-path="url(#f39a6ac4d2)"><g clip-path="url(#680d09166d)"><g transform="matrix(1, 0, 0, 1, 0.000000000000000888, 6)"><g clip-path="url(#9d964b6cd7)"><g clip-path="url(#9b7ee4d4eb)"><g clip-path="url(#4349baf28e)"><path fill="#849bff" d="M 0.984375 0.0859375 L 15.929688 0.0859375 L 15.929688 15.035156 L 0.984375 15.035156 Z M 0.984375 0.0859375 " fill-opacity="1" fill-rule="nonzero"/></g></g></g></g></g></g><g clip-path="url(#c66b1a1a6f)"><g transform="matrix(1, 0, 0, 1, 38, 15)"><g clip-path="url(#c0233254a8)"><g clip-path="url(#a6b4521762)"><path fill="url(#08c2c1075b)" d="M 0.195312 0.316406 L 0.195312 7.957031 L 10.214844 7.957031 L 10.214844 0.316406 Z M 0.195312 0.316406 " fill-rule="nonzero"/></g></g></g></g><g clip-path="url(#bf9afa3d75)"><g transform="matrix(1, 0, 0, 1, 4, 0.000000000000005692)"><g clip-path="url(#dde30787be)"><g clip-path="url(#0eff119d0c)"><g fill="#000000" fill-opacity="1"><g transform="translate(0.872627, 24.517813)"><g><path d="M 9.453125 -13 C 10.359375 -13 11.1875 -12.738281 11.9375 -12.21875 C 12.695312 -11.695312 13.296875 -11 13.734375 -10.125 C 14.179688 -9.25 14.40625 -8.28125 14.40625 -7.21875 C 14.40625 -6.175781 14.15625 -5.21875 13.65625 -4.34375 C 13.15625 -3.46875 12.5 -2.769531 11.6875 -2.25 C 10.882812 -1.726562 10.015625 -1.46875 9.078125 -1.46875 C 8.253906 -1.46875 7.632812 -1.535156 7.21875 -1.671875 C 6.800781 -1.816406 6.535156 -1.9375 6.421875 -2.03125 C 6.460938 -1.144531 6.546875 -0.367188 6.671875 0.296875 C 6.796875 0.960938 6.976562 1.429688 7.21875 1.703125 C 7.375 1.847656 7.53125 1.96875 7.6875 2.0625 C 7.84375 2.15625 7.894531 2.3125 7.84375 2.53125 C 7.800781 2.863281 7.539062 3.113281 7.0625 3.28125 C 6.59375 3.445312 6.050781 3.554688 5.4375 3.609375 C 4.832031 3.660156 4.304688 3.6875 3.859375 3.6875 C 3.441406 3.6875 2.929688 3.660156 2.328125 3.609375 C 1.734375 3.554688 1.207031 3.445312 0.75 3.28125 C 0.289062 3.113281 0.0390625 2.863281 0 2.53125 C -0.0195312 2.28125 0.03125 2.101562 0.15625 2 C 0.289062 1.90625 0.4375 1.78125 0.59375 1.625 C 0.84375 1.40625 1.015625 1 1.109375 0.40625 C 1.210938 -0.175781 1.273438 -0.832031 1.296875 -1.5625 C 1.316406 -2.289062 1.328125 -2.976562 1.328125 -3.625 C 1.328125 -4.6875 1.316406 -5.632812 1.296875 -6.46875 C 1.273438 -7.300781 1.085938 -7.941406 0.734375 -8.390625 C 0.578125 -8.609375 0.410156 -8.800781 0.234375 -8.96875 C 0.0546875 -9.132812 -0.0195312 -9.335938 0 -9.578125 C 0.0390625 -9.910156 0.234375 -10.210938 0.578125 -10.484375 C 0.921875 -10.765625 1.320312 -11.015625 1.78125 -11.234375 C 2.238281 -11.460938 2.65625 -11.675781 3.03125 -11.875 C 3.289062 -12.007812 3.640625 -12.179688 4.078125 -12.390625 C 4.523438 -12.597656 4.972656 -12.765625 5.421875 -12.890625 C 5.867188 -13.015625 6.238281 -13.039062 6.53125 -12.96875 C 6.832031 -12.90625 6.960938 -12.648438 6.921875 -12.203125 C 7.691406 -12.734375 8.535156 -13 9.453125 -13 Z M 7.65625 -3.03125 C 8.269531 -3.3125 8.738281 -3.773438 9.0625 -4.421875 C 9.382812 -5.066406 9.578125 -5.785156 9.640625 -6.578125 C 9.710938 -7.378906 9.679688 -8.144531 9.546875 -8.875 C 9.410156 -9.613281 9.195312 -10.21875 8.90625 -10.6875 C 8.625 -11.164062 8.285156 -11.40625 7.890625 -11.40625 C 7.554688 -11.40625 7.269531 -11.234375 7.03125 -10.890625 C 6.800781 -10.546875 6.675781 -10.207031 6.65625 -9.875 C 6.5625 -9.144531 6.492188 -8.320312 6.453125 -7.40625 C 6.410156 -6.5 6.390625 -5.492188 6.390625 -4.390625 C 6.390625 -3.765625 6.5625 -3.359375 6.90625 -3.171875 C 7.25 -2.984375 7.5 -2.9375 7.65625 -3.03125 Z M 7.65625 -3.03125 "/></g></g></g></g></g></g></g><g clip-path="url(#91a8f0a3bd)"><g transform="matrix(1, 0, 0, 1, 15, 0.000000000000005692)"><g clip-path="url(#d235cef920)"><g clip-path="url(#25776192ce)"><g fill="#000000" fill-opacity="1"><g transform="translate(0.931033, 21.850091)"><g><path d="M 9.53125 -12.71875 C 10.382812 -12.71875 11.09375 -12.519531 11.65625 -12.125 C 12.21875 -11.738281 12.671875 -11.234375 13.015625 -10.609375 C 13.367188 -9.984375 13.644531 -9.304688 13.84375 -8.578125 C 14.050781 -7.847656 14.222656 -7.132812 14.359375 -6.4375 C 14.503906 -5.75 14.644531 -5.140625 14.78125 -4.609375 C 14.925781 -4.078125 15.117188 -3.703125 15.359375 -3.484375 C 15.535156 -3.328125 15.71875 -3.191406 15.90625 -3.078125 C 16.101562 -2.972656 16.179688 -2.804688 16.140625 -2.578125 C 16.097656 -2.242188 15.914062 -1.992188 15.59375 -1.828125 C 15.269531 -1.671875 14.878906 -1.566406 14.421875 -1.515625 C 13.960938 -1.460938 13.515625 -1.4375 13.078125 -1.4375 C 12.671875 -1.4375 12.175781 -1.515625 11.59375 -1.671875 C 11.019531 -1.835938 10.519531 -2.144531 10.09375 -2.59375 C 9.675781 -3.050781 9.46875 -3.726562 9.46875 -4.625 L 9.46875 -9.109375 C 9.46875 -9.910156 9.347656 -10.441406 9.109375 -10.703125 C 8.867188 -10.960938 8.582031 -11.003906 8.25 -10.828125 C 7.914062 -10.660156 7.585938 -10.332031 7.265625 -9.84375 C 6.953125 -9.351562 6.703125 -8.753906 6.515625 -8.046875 C 6.335938 -7.347656 6.289062 -6.597656 6.375 -5.796875 C 6.414062 -5.210938 6.492188 -4.707031 6.609375 -4.28125 C 6.734375 -3.851562 6.882812 -3.554688 7.0625 -3.390625 C 7.21875 -3.234375 7.367188 -3.101562 7.515625 -3 C 7.671875 -2.90625 7.726562 -2.765625 7.6875 -2.578125 C 7.632812 -2.242188 7.375 -1.992188 6.90625 -1.828125 C 6.445312 -1.671875 5.914062 -1.566406 5.3125 -1.515625 C 4.71875 -1.460938 4.207031 -1.4375 3.78125 -1.4375 C 3.363281 -1.4375 2.863281 -1.460938 2.28125 -1.515625 C 1.695312 -1.566406 1.179688 -1.671875 0.734375 -1.828125 C 0.285156 -1.992188 0.0390625 -2.242188 0 -2.578125 C -0.0195312 -2.785156 0.03125 -2.941406 0.15625 -3.046875 C 0.289062 -3.160156 0.429688 -3.296875 0.578125 -3.453125 C 0.816406 -3.671875 0.984375 -4.066406 1.078125 -4.640625 C 1.179688 -5.210938 1.242188 -5.859375 1.265625 -6.578125 C 1.285156 -7.296875 1.296875 -7.957031 1.296875 -8.5625 C 1.296875 -9.625 1.285156 -10.554688 1.265625 -11.359375 C 1.242188 -12.160156 1.0625 -12.78125 0.71875 -13.21875 C 0.5625 -13.457031 0.394531 -13.648438 0.21875 -13.796875 C 0.0507812 -13.953125 -0.0195312 -14.160156 0 -14.421875 C 0.0390625 -14.742188 0.226562 -15.035156 0.5625 -15.296875 C 0.90625 -15.554688 1.296875 -15.796875 1.734375 -16.015625 C 2.179688 -16.234375 2.59375 -16.4375 2.96875 -16.625 C 3.25 -16.78125 3.617188 -16.96875 4.078125 -17.1875 C 4.546875 -17.40625 5.003906 -17.570312 5.453125 -17.6875 C 5.898438 -17.8125 6.253906 -17.804688 6.515625 -17.671875 C 6.773438 -17.546875 6.835938 -17.222656 6.703125 -16.703125 C 6.679688 -16.546875 6.640625 -16.125 6.578125 -15.4375 C 6.515625 -14.757812 6.445312 -13.929688 6.375 -12.953125 C 6.3125 -11.972656 6.269531 -10.960938 6.25 -9.921875 C 6.570312 -10.878906 7.066406 -11.582031 7.734375 -12.03125 C 8.410156 -12.488281 9.007812 -12.71875 9.53125 -12.71875 Z M 9.53125 -12.71875 "/></g></g></g></g></g></g></g><g clip-path="url(#29661ac84e)"><g transform="matrix(1, 0, 0, 1, 31, 0.000000000000005692)"><g clip-path="url(#776d90d0d9)"><g clip-path="url(#32fbe50ed0)"><g fill="#000000" fill-opacity="1"><g transform="translate(0.61415, 24.040051)"><g><path d="M 11.875 -6.984375 C 12.132812 -7.285156 12.375 -7.367188 12.59375 -7.234375 C 12.8125 -7.109375 12.898438 -6.894531 12.859375 -6.59375 L 12.78125 -6.25 C 12.570312 -5.34375 12.164062 -4.535156 11.5625 -3.828125 C 10.957031 -3.128906 10.21875 -2.570312 9.34375 -2.15625 C 8.46875 -1.738281 7.503906 -1.53125 6.453125 -1.53125 C 5.273438 -1.53125 4.195312 -1.800781 3.21875 -2.34375 C 2.25 -2.882812 1.46875 -3.613281 0.875 -4.53125 C 0.289062 -5.445312 0 -6.445312 0 -7.53125 C 0 -8.644531 0.289062 -9.660156 0.875 -10.578125 C 1.46875 -11.492188 2.25 -12.222656 3.21875 -12.765625 C 4.195312 -13.304688 5.273438 -13.578125 6.453125 -13.578125 C 7.617188 -13.578125 8.679688 -13.359375 9.640625 -12.921875 C 10.597656 -12.484375 11.285156 -11.859375 11.703125 -11.046875 C 11.960938 -10.535156 12 -9.992188 11.8125 -9.421875 C 11.625 -8.859375 11.285156 -8.332031 10.796875 -7.84375 C 10.316406 -7.363281 9.75 -6.972656 9.09375 -6.671875 C 8.445312 -6.367188 7.800781 -6.21875 7.15625 -6.21875 C 6.851562 -6.21875 6.554688 -6.238281 6.265625 -6.28125 C 5.972656 -6.332031 5.710938 -6.40625 5.484375 -6.5 C 5.835938 -5.726562 6.378906 -5.238281 7.109375 -5.03125 C 7.835938 -4.820312 8.628906 -4.882812 9.484375 -5.21875 C 10.335938 -5.5625 11.132812 -6.148438 11.875 -6.984375 Z M 6.453125 -12.21875 C 6.160156 -12.21875 5.914062 -12.003906 5.71875 -11.578125 C 5.519531 -11.148438 5.375 -10.640625 5.28125 -10.046875 C 5.1875 -9.460938 5.140625 -8.914062 5.140625 -8.40625 C 5.140625 -8.0625 5.175781 -7.726562 5.25 -7.40625 C 5.269531 -7.445312 5.335938 -7.488281 5.453125 -7.53125 C 5.984375 -7.863281 6.367188 -8.289062 6.609375 -8.8125 C 6.859375 -9.332031 7.003906 -9.851562 7.046875 -10.375 C 7.097656 -10.894531 7.0625 -11.332031 6.9375 -11.6875 C 6.820312 -12.039062 6.660156 -12.21875 6.453125 -12.21875 Z M 6.453125 -12.21875 "/></g></g></g></g></g></g></g><g clip-path="url(#0933655e9b)"><g transform="matrix(1, 0, 0, 1, 50, 0.000000000000005718)"><g clip-path="url(#d3a3396b63)"><g clip-path="url(#ddc4d8d501)"><path fill="#f6ff4a" d="M 0.824219 0.496094 L 10.800781 0.496094 L 10.800781 16.585938 L 0.824219 16.585938 Z M 0.824219 0.496094 " fill-opacity="1" fill-rule="nonzero"/></g></g></g></g><g clip-path="url(#6484b573ed)"><g transform="matrix(1, 0, 0, 1, 44, 0.000000000000005692)"><g clip-path="url(#5cedd2e54a)"><g clip-path="url(#fc2e9976ee)"><g fill="#000000" fill-opacity="1"><g transform="translate(0.776969, 22.081683)"><g><path d="M 11.171875 -6.5625 C 11.410156 -6.851562 11.632812 -6.9375 11.84375 -6.8125 C 12.050781 -6.695312 12.132812 -6.492188 12.09375 -6.203125 L 12.03125 -5.890625 C 11.832031 -5.035156 11.445312 -4.273438 10.875 -3.609375 C 10.3125 -2.941406 9.613281 -2.410156 8.78125 -2.015625 C 7.957031 -1.628906 7.054688 -1.4375 6.078125 -1.4375 C 4.960938 -1.4375 3.945312 -1.691406 3.03125 -2.203125 C 2.125 -2.710938 1.390625 -3.398438 0.828125 -4.265625 C 0.273438 -5.128906 0 -6.070312 0 -7.09375 C 0 -8.132812 0.273438 -9.085938 0.828125 -9.953125 C 1.390625 -10.816406 2.125 -11.503906 3.03125 -12.015625 C 3.945312 -12.523438 4.960938 -12.78125 6.078125 -12.78125 C 7.171875 -12.78125 8.164062 -12.570312 9.0625 -12.15625 C 9.96875 -11.738281 10.617188 -11.148438 11.015625 -10.390625 C 11.253906 -9.910156 11.285156 -9.40625 11.109375 -8.875 C 10.941406 -8.34375 10.628906 -7.847656 10.171875 -7.390625 C 9.710938 -6.929688 9.175781 -6.554688 8.5625 -6.265625 C 7.957031 -5.984375 7.347656 -5.84375 6.734375 -5.84375 C 6.453125 -5.84375 6.171875 -5.863281 5.890625 -5.90625 C 5.617188 -5.957031 5.378906 -6.023438 5.171875 -6.109375 C 5.492188 -5.390625 6 -4.929688 6.6875 -4.734375 C 7.375 -4.546875 8.117188 -4.609375 8.921875 -4.921875 C 9.734375 -5.234375 10.484375 -5.78125 11.171875 -6.5625 Z M 6.078125 -11.5 C 5.796875 -11.5 5.5625 -11.296875 5.375 -10.890625 C 5.1875 -10.492188 5.050781 -10.015625 4.96875 -9.453125 C 4.882812 -8.898438 4.84375 -8.382812 4.84375 -7.90625 C 4.84375 -7.582031 4.875 -7.269531 4.9375 -6.96875 C 4.957031 -7.007812 5.019531 -7.050781 5.125 -7.09375 C 5.632812 -7.394531 6 -7.789062 6.21875 -8.28125 C 6.445312 -8.769531 6.582031 -9.257812 6.625 -9.75 C 6.675781 -10.25 6.644531 -10.664062 6.53125 -11 C 6.425781 -11.332031 6.273438 -11.5 6.078125 -11.5 Z M 6.078125 -11.5 "/></g></g></g></g></g></g></g><g clip-path="url(#072f5c3eb6)"><g transform="matrix(1, 0, 0, 1, 53, 0.000000000000005692)"><g clip-path="url(#bdb53bfeb2)"><g clip-path="url(#1aa248b380)"><g fill="#fdb515" fill-opacity="1"><g transform="translate(1.049391, 21.109783)"><g><path d="M 13.078125 -16.046875 L 19.28125 -16.046875 L 19.28125 -15.859375 C 18.695312 -15.785156 18.109375 -15.566406 17.515625 -15.203125 C 16.929688 -14.847656 16.398438 -14.414062 15.921875 -13.90625 C 15.441406 -13.394531 15.070312 -12.867188 14.8125 -12.328125 L 7.875 2.1875 C 7.570312 2.863281 7.4375 3.550781 7.46875 4.25 C 7.5 4.945312 7.6875 5.570312 8.03125 6.125 C 8.382812 6.6875 8.859375 7.117188 9.453125 7.421875 C 9.878906 7.617188 10.347656 7.71875 10.859375 7.71875 C 11.222656 7.71875 11.40625 7.519531 11.40625 7.125 C 11.40625 6.84375 11.28125 6.578125 11.03125 6.328125 C 10.78125 6.078125 10.523438 5.785156 10.265625 5.453125 C 10.003906 5.128906 9.875 4.71875 9.875 4.21875 C 9.875 3.519531 10.125 2.921875 10.625 2.421875 C 11.125 1.921875 11.710938 1.671875 12.390625 1.671875 C 13.085938 1.671875 13.6875 1.921875 14.1875 2.421875 C 14.6875 2.921875 14.9375 3.519531 14.9375 4.21875 C 14.9375 4.820312 14.757812 5.390625 14.40625 5.921875 C 14.0625 6.460938 13.601562 6.90625 13.03125 7.25 C 12.46875 7.601562 11.859375 7.816406 11.203125 7.890625 C 10.554688 7.972656 9.9375 7.867188 9.34375 7.578125 C 8.71875 7.273438 8.222656 6.820312 7.859375 6.21875 C 7.503906 5.625 7.304688 4.96875 7.265625 4.25 C 7.234375 3.53125 7.382812 2.820312 7.71875 2.125 L 8.734375 0 L 1.765625 -14.609375 C 1.609375 -14.910156 1.378906 -15.1875 1.078125 -15.4375 C 0.773438 -15.695312 0.46875 -15.835938 0.15625 -15.859375 L 0.15625 -16.046875 L 5.75 -16.046875 C 6.320312 -16.046875 6.71875 -15.828125 6.9375 -15.390625 L 11.5 -5.8125 L 14.8125 -12.75 C 14.9375 -13.050781 15 -13.367188 15 -13.703125 C 15 -14.265625 14.8125 -14.75 14.4375 -15.15625 C 14.070312 -15.570312 13.617188 -15.804688 13.078125 -15.859375 Z M 13.078125 -16.046875 "/></g></g></g></g></g></g></g><g clip-path="url(#efd0493298)"><g transform="matrix(1, 0, 0, 1, 68, 2)"><g clip-path="url(#ec79012838)"><g fill="#151f28" fill-opacity="1"><g transform="translate(0.275485, 25.223257)"><g><path d="M 14.578125 -2.453125 C 14.578125 -2.054688 14.707031 -1.707031 14.96875 -1.40625 C 15.226562 -1.101562 15.546875 -0.914062 15.921875 -0.84375 L 15.921875 -0.65625 L 10.296875 0.15625 C 10.296875 0.15625 10.289062 0.15625 10.28125 0.15625 C 10.269531 0.15625 10.253906 0.15625 10.234375 0.15625 C 10.078125 0.15625 9.9375 0.0976562 9.8125 -0.015625 C 9.695312 -0.140625 9.640625 -0.273438 9.640625 -0.421875 L 9.640625 -1.234375 C 9.242188 -0.953125 8.710938 -0.648438 8.046875 -0.328125 C 7.390625 -0.00390625 6.601562 0.15625 5.6875 0.15625 C 4.664062 0.15625 3.738281 -0.113281 2.90625 -0.65625 C 2.082031 -1.195312 1.550781 -1.925781 1.3125 -2.84375 C 1.050781 -3.78125 1.144531 -4.695312 1.59375 -5.59375 C 2.050781 -6.488281 2.726562 -7.207031 3.625 -7.75 C 4.195312 -8.09375 4.914062 -8.421875 5.78125 -8.734375 C 6.65625 -9.054688 7.570312 -9.375 8.53125 -9.6875 C 9.488281 -10.007812 10.382812 -10.335938 11.21875 -10.671875 C 12.0625 -11.003906 12.75 -11.375 13.28125 -11.78125 C 13.820312 -12.1875 14.09375 -12.640625 14.09375 -13.140625 C 14.09375 -13.578125 13.898438 -14.015625 13.515625 -14.453125 C 13.128906 -14.890625 12.675781 -15.238281 12.15625 -15.5 C 11.53125 -15.800781 10.832031 -16.003906 10.0625 -16.109375 C 9.300781 -16.222656 8.519531 -16.210938 7.71875 -16.078125 C 6.46875 -15.910156 5.84375 -15.5 5.84375 -14.84375 C 5.84375 -14.445312 5.960938 -14.109375 6.203125 -13.828125 C 6.441406 -13.546875 6.675781 -13.242188 6.90625 -12.921875 C 7.132812 -12.609375 7.25 -12.203125 7.25 -11.703125 C 7.25 -11.003906 7 -10.410156 6.5 -9.921875 C 6 -9.429688 5.398438 -9.1875 4.703125 -9.1875 C 4.003906 -9.1875 3.410156 -9.429688 2.921875 -9.921875 C 2.429688 -10.410156 2.1875 -11.003906 2.1875 -11.703125 C 2.1875 -12.554688 2.476562 -13.300781 3.0625 -13.9375 C 3.65625 -14.582031 4.378906 -15.101562 5.234375 -15.5 C 6.097656 -15.90625 6.914062 -16.164062 7.6875 -16.28125 C 9.425781 -16.539062 10.945312 -16.332031 12.25 -15.65625 C 12.882812 -15.351562 13.429688 -14.921875 13.890625 -14.359375 C 14.347656 -13.804688 14.578125 -13.128906 14.578125 -12.328125 Z M 9.640625 -1.46875 L 9.640625 -9.875 C 9.203125 -9.675781 8.71875 -9.40625 8.1875 -9.0625 C 7.65625 -8.726562 7.191406 -8.269531 6.796875 -7.6875 C 6.398438 -7.113281 6.171875 -6.367188 6.109375 -5.453125 C 6.066406 -4.671875 6.128906 -3.976562 6.296875 -3.375 C 6.472656 -2.78125 6.738281 -2.296875 7.09375 -1.921875 C 7.46875 -1.535156 7.898438 -1.296875 8.390625 -1.203125 C 8.878906 -1.117188 9.296875 -1.207031 9.640625 -1.46875 Z M 9.640625 -1.46875 "/></g></g></g></g></g></g><g clip-path="url(#ddadaf2655)"><g clip-path="url(#95b4d02284)"><g transform="matrix(1, 0, 0, 1, 66, 17)"><g clip-path="url(#4ad67c9ab7)"><g clip-path="url(#3fd1bb12ec)"><g clip-path="url(#beec25b3bb)"><path fill="#260c09" d="M 0.183594 0.046875 L 4.363281 0.046875 L 4.363281 4.226562 L 0.183594 4.226562 Z M 0.183594 0.046875 " fill-opacity="1" fill-rule="nonzero"/></g></g></g></g></g></g></g></g></g></svg>