<svg xmlns="http://www.w3.org/2000/svg" xmlns:xlink="http://www.w3.org/1999/xlink" width="128" zoomAndPan="magnify" viewBox="0 0 96 30.000001" height="40" preserveAspectRatio="xMidYMid meet" version="1.0"><defs><g/><clipPath id="269488f7b0"><path d="M 0.804688 5.453125 L 8.378906 5.453125 L 8.378906 13.03125 L 0.804688 13.03125 Z M 0.804688 5.453125 " clip-rule="nonzero"/></clipPath><clipPath id="52ffdb803d"><path d="M 4.589844 5.453125 C 2.5 5.453125 0.804688 7.152344 0.804688 9.242188 C 0.804688 11.335938 2.5 13.03125 4.589844 13.03125 C 6.683594 13.03125 8.378906 11.335938 8.378906 9.242188 C 8.378906 7.152344 6.683594 5.453125 4.589844 5.453125 Z M 4.589844 5.453125 " clip-rule="nonzero"/></clipPath><clipPath id="1d8232a8a6"><path d="M 0.804688 0.453125 L 8.378906 0.453125 L 8.378906 8.03125 L 0.804688 8.03125 Z M 0.804688 0.453125 " clip-rule="nonzero"/></clipPath><clipPath id="53a0f5b7cc"><path d="M 4.589844 0.453125 C 2.5 0.453125 0.804688 2.152344 0.804688 4.242188 C 0.804688 6.335938 2.5 8.03125 4.589844 8.03125 C 6.683594 8.03125 8.378906 6.335938 8.378906 4.242188 C 8.378906 2.152344 6.683594 0.453125 4.589844 0.453125 Z M 4.589844 0.453125 " clip-rule="nonzero"/></clipPath><clipPath id="6c41137220"><rect x="0" width="9" y="0" height="9"/></clipPath><clipPath id="bd4d8e1f2c"><path d="M 19.667969 10.132812 L 24.746094 10.132812 L 24.746094 14.003906 L 19.667969 14.003906 Z M 19.667969 10.132812 " clip-rule="nonzero"/></clipPath><clipPath id="d5d296e7dc"><path d="M 0.667969 0.132812 L 5.746094 0.132812 L 5.746094 4.003906 L 0.667969 4.003906 Z M 0.667969 0.132812 " clip-rule="nonzero"/></clipPath><linearGradient x1="0.006326" gradientTransform="matrix(0.0151258, 0, 0, 0.0151258, 0.665924, 0.132914)" y1="128" x2="335.79401" gradientUnits="userSpaceOnUse" y2="128" id="1edb7d8b0b"><stop stop-opacity="1" stop-color="rgb(0%, 59.21936%, 69.798279%)" offset="0"/><stop stop-opacity="1" stop-color="rgb(0.192261%, 59.320068%, 69.659424%)" offset="0.0078125"/><stop stop-opacity="1" stop-color="rgb(0.578308%, 59.52301%, 69.380188%)" offset="0.015625"/><stop stop-opacity="1" stop-color="rgb(0.964355%, 59.724426%, 69.100952%)" offset="0.0234375"/><stop stop-opacity="1" stop-color="rgb(1.350403%, 59.927368%, 68.821716%)" offset="0.03125"/><stop stop-opacity="1" stop-color="rgb(1.73645%, 60.128784%, 68.544006%)" offset="0.0390625"/><stop stop-opacity="1" stop-color="rgb(2.122498%, 60.331726%, 68.264771%)" offset="0.046875"/><stop stop-opacity="1" stop-color="rgb(2.508545%, 60.533142%, 67.985535%)" offset="0.0546875"/><stop stop-opacity="1" stop-color="rgb(2.894592%, 60.736084%, 67.707825%)" offset="0.0625"/><stop stop-opacity="1" stop-color="rgb(3.28064%, 60.9375%, 67.428589%)" offset="0.0703125"/><stop stop-opacity="1" stop-color="rgb(3.666687%, 61.140442%, 67.149353%)" offset="0.078125"/><stop stop-opacity="1" stop-color="rgb(4.052734%, 61.341858%, 66.871643%)" offset="0.0859375"/><stop stop-opacity="1" stop-color="rgb(4.438782%, 61.5448%, 66.592407%)" offset="0.09375"/><stop stop-opacity="1" stop-color="rgb(4.824829%, 61.746216%, 66.313171%)" offset="0.101562"/><stop stop-opacity="1" stop-color="rgb(5.210876%, 61.949158%, 66.035461%)" offset="0.109375"/><stop stop-opacity="1" stop-color="rgb(5.596924%, 62.150574%, 65.756226%)" offset="0.117187"/><stop stop-opacity="1" stop-color="rgb(5.982971%, 62.353516%, 65.47699%)" offset="0.125"/><stop stop-opacity="1" stop-color="rgb(6.369019%, 62.554932%, 65.19928%)" offset="0.132812"/><stop stop-opacity="1" stop-color="rgb(6.755066%, 62.757874%, 64.920044%)" offset="0.140625"/><stop stop-opacity="1" stop-color="rgb(7.141113%, 62.95929%, 64.640808%)" offset="0.148438"/><stop stop-opacity="1" stop-color="rgb(7.527161%, 63.162231%, 64.363098%)" offset="0.15625"/><stop stop-opacity="1" stop-color="rgb(7.913208%, 63.363647%, 64.083862%)" offset="0.164062"/><stop stop-opacity="1" stop-color="rgb(8.299255%, 63.566589%, 63.804626%)" offset="0.171875"/><stop stop-opacity="1" stop-color="rgb(8.685303%, 63.768005%, 63.526917%)" offset="0.179687"/><stop stop-opacity="1" stop-color="rgb(9.07135%, 63.970947%, 63.247681%)" offset="0.1875"/><stop stop-opacity="1" stop-color="rgb(9.455872%, 64.172363%, 62.968445%)" offset="0.195312"/><stop stop-opacity="1" stop-color="rgb(9.841919%, 64.375305%, 62.690735%)" offset="0.203125"/><stop stop-opacity="1" stop-color="rgb(10.227966%, 64.576721%, 62.411499%)" offset="0.210937"/><stop stop-opacity="1" stop-color="rgb(10.614014%, 64.779663%, 62.132263%)" offset="0.21875"/><stop stop-opacity="1" stop-color="rgb(11.000061%, 64.981079%, 61.854553%)" offset="0.226562"/><stop stop-opacity="1" stop-color="rgb(11.386108%, 65.184021%, 61.575317%)" offset="0.234375"/><stop stop-opacity="1" stop-color="rgb(11.772156%, 65.385437%, 61.296082%)" offset="0.242187"/><stop stop-opacity="1" stop-color="rgb(12.158203%, 65.588379%, 61.016846%)" offset="0.25"/><stop stop-opacity="1" stop-color="rgb(12.54425%, 65.789795%, 60.739136%)" offset="0.257812"/><stop stop-opacity="1" stop-color="rgb(12.930298%, 65.992737%, 60.4599%)" offset="0.265625"/><stop stop-opacity="1" stop-color="rgb(13.316345%, 66.194153%, 60.180664%)" offset="0.273437"/><stop stop-opacity="1" stop-color="rgb(13.702393%, 66.397095%, 59.902954%)" offset="0.28125"/><stop stop-opacity="1" stop-color="rgb(14.08844%, 66.598511%, 59.623718%)" offset="0.289062"/><stop stop-opacity="1" stop-color="rgb(14.474487%, 66.801453%, 59.344482%)" offset="0.296875"/><stop stop-opacity="1" stop-color="rgb(14.860535%, 67.002869%, 59.066772%)" offset="0.304687"/><stop stop-opacity="1" stop-color="rgb(15.246582%, 67.205811%, 58.787537%)" offset="0.3125"/><stop stop-opacity="1" stop-color="rgb(15.632629%, 67.407227%, 58.508301%)" offset="0.320312"/><stop stop-opacity="1" stop-color="rgb(16.018677%, 67.610168%, 58.230591%)" offset="0.328125"/><stop stop-opacity="1" stop-color="rgb(16.404724%, 67.811584%, 57.951355%)" offset="0.335937"/><stop stop-opacity="1" stop-color="rgb(16.790771%, 68.014526%, 57.672119%)" offset="0.34375"/><stop stop-opacity="1" stop-color="rgb(17.176819%, 68.215942%, 57.394409%)" offset="0.351562"/><stop stop-opacity="1" stop-color="rgb(17.562866%, 68.418884%, 57.115173%)" offset="0.359375"/><stop stop-opacity="1" stop-color="rgb(17.948914%, 68.6203%, 56.835938%)" offset="0.367187"/><stop stop-opacity="1" stop-color="rgb(18.334961%, 68.823242%, 56.558228%)" offset="0.375"/><stop stop-opacity="1" stop-color="rgb(18.721008%, 69.024658%, 56.278992%)" offset="0.382812"/><stop stop-opacity="1" stop-color="rgb(19.107056%, 69.2276%, 55.999756%)" offset="0.390625"/><stop stop-opacity="1" stop-color="rgb(19.493103%, 69.429016%, 55.722046%)" offset="0.398438"/><stop stop-opacity="1" stop-color="rgb(19.87915%, 69.631958%, 55.44281%)" offset="0.40625"/><stop stop-opacity="1" stop-color="rgb(20.265198%, 69.833374%, 55.163574%)" offset="0.414062"/><stop stop-opacity="1" stop-color="rgb(20.651245%, 70.036316%, 54.885864%)" offset="0.421875"/><stop stop-opacity="1" stop-color="rgb(21.037292%, 70.237732%, 54.606628%)" offset="0.429688"/><stop stop-opacity="1" stop-color="rgb(21.42334%, 70.440674%, 54.327393%)" offset="0.4375"/><stop stop-opacity="1" stop-color="rgb(21.809387%, 70.64209%, 54.049683%)" offset="0.445312"/><stop stop-opacity="1" stop-color="rgb(22.195435%, 70.845032%, 53.770447%)" offset="0.453125"/><stop stop-opacity="1" stop-color="rgb(22.581482%, 71.046448%, 53.491211%)" offset="0.460937"/><stop stop-opacity="1" stop-color="rgb(22.967529%, 71.24939%, 53.211975%)" offset="0.46875"/><stop stop-opacity="1" stop-color="rgb(23.353577%, 71.450806%, 52.934265%)" offset="0.476562"/><stop stop-opacity="1" stop-color="rgb(23.739624%, 71.653748%, 52.655029%)" offset="0.484375"/><stop stop-opacity="1" stop-color="rgb(24.125671%, 71.855164%, 52.375793%)" offset="0.492187"/><stop stop-opacity="1" stop-color="rgb(24.510193%, 72.058105%, 52.098083%)" offset="0.5"/><stop stop-opacity="1" stop-color="rgb(24.89624%, 72.259521%, 51.818848%)" offset="0.507812"/><stop stop-opacity="1" stop-color="rgb(25.282288%, 72.462463%, 51.539612%)" offset="0.515625"/><stop stop-opacity="1" stop-color="rgb(25.668335%, 72.663879%, 51.261902%)" offset="0.523438"/><stop stop-opacity="1" stop-color="rgb(26.054382%, 72.866821%, 50.982666%)" offset="0.53125"/><stop stop-opacity="1" stop-color="rgb(26.44043%, 73.068237%, 50.70343%)" offset="0.539062"/><stop stop-opacity="1" stop-color="rgb(26.826477%, 73.271179%, 50.42572%)" offset="0.546875"/><stop stop-opacity="1" stop-color="rgb(27.212524%, 73.472595%, 50.146484%)" offset="0.554688"/><stop stop-opacity="1" stop-color="rgb(27.598572%, 73.675537%, 49.867249%)" offset="0.5625"/><stop stop-opacity="1" stop-color="rgb(27.984619%, 73.876953%, 49.589539%)" offset="0.570312"/><stop stop-opacity="1" stop-color="rgb(28.370667%, 74.079895%, 49.310303%)" offset="0.578125"/><stop stop-opacity="1" stop-color="rgb(28.756714%, 74.281311%, 49.031067%)" offset="0.585938"/><stop stop-opacity="1" stop-color="rgb(29.142761%, 74.484253%, 48.753357%)" offset="0.59375"/><stop stop-opacity="1" stop-color="rgb(29.528809%, 74.685669%, 48.474121%)" offset="0.601562"/><stop stop-opacity="1" stop-color="rgb(29.914856%, 74.888611%, 48.194885%)" offset="0.609375"/><stop stop-opacity="1" stop-color="rgb(30.300903%, 75.090027%, 47.917175%)" offset="0.617188"/><stop stop-opacity="1" stop-color="rgb(30.686951%, 75.292969%, 47.637939%)" offset="0.625"/><stop stop-opacity="1" stop-color="rgb(31.072998%, 75.494385%, 47.358704%)" offset="0.632812"/><stop stop-opacity="1" stop-color="rgb(31.459045%, 75.697327%, 47.080994%)" offset="0.640625"/><stop stop-opacity="1" stop-color="rgb(31.845093%, 75.898743%, 46.801758%)" offset="0.648437"/><stop stop-opacity="1" stop-color="rgb(32.23114%, 76.101685%, 46.522522%)" offset="0.65625"/><stop stop-opacity="1" stop-color="rgb(32.617188%, 76.303101%, 46.244812%)" offset="0.664062"/><stop stop-opacity="1" stop-color="rgb(33.003235%, 76.506042%, 45.965576%)" offset="0.671875"/><stop stop-opacity="1" stop-color="rgb(33.389282%, 76.708984%, 45.68634%)" offset="0.679687"/><stop stop-opacity="1" stop-color="rgb(33.77533%, 76.9104%, 45.40863%)" offset="0.6875"/><stop stop-opacity="1" stop-color="rgb(34.161377%, 77.113342%, 45.129395%)" offset="0.695312"/><stop stop-opacity="1" stop-color="rgb(34.547424%, 77.314758%, 44.850159%)" offset="0.703125"/><stop stop-opacity="1" stop-color="rgb(34.933472%, 77.5177%, 44.570923%)" offset="0.710937"/><stop stop-opacity="1" stop-color="rgb(35.319519%, 77.719116%, 44.293213%)" offset="0.71875"/><stop stop-opacity="1" stop-color="rgb(35.705566%, 77.922058%, 44.013977%)" offset="0.726562"/><stop stop-opacity="1" stop-color="rgb(36.091614%, 78.123474%, 43.734741%)" offset="0.734375"/><stop stop-opacity="1" stop-color="rgb(36.477661%, 78.326416%, 43.457031%)" offset="0.742187"/><stop stop-opacity="1" stop-color="rgb(36.863708%, 78.527832%, 43.177795%)" offset="0.75"/><stop stop-opacity="1" stop-color="rgb(37.249756%, 78.730774%, 42.89856%)" offset="0.757813"/><stop stop-opacity="1" stop-color="rgb(37.635803%, 78.93219%, 42.62085%)" offset="0.765625"/><stop stop-opacity="1" stop-color="rgb(38.021851%, 79.135132%, 42.341614%)" offset="0.773438"/><stop stop-opacity="1" stop-color="rgb(38.407898%, 79.336548%, 42.062378%)" offset="0.78125"/><stop stop-opacity="1" stop-color="rgb(38.793945%, 79.53949%, 41.784668%)" offset="0.789063"/><stop stop-opacity="1" stop-color="rgb(39.179993%, 79.740906%, 41.505432%)" offset="0.796875"/><stop stop-opacity="1" stop-color="rgb(39.56604%, 79.943848%, 41.226196%)" offset="0.804688"/><stop stop-opacity="1" stop-color="rgb(39.950562%, 80.145264%, 40.948486%)" offset="0.8125"/><stop stop-opacity="1" stop-color="rgb(40.336609%, 80.348206%, 40.66925%)" offset="0.820313"/><stop stop-opacity="1" stop-color="rgb(40.722656%, 80.549622%, 40.390015%)" offset="0.828125"/><stop stop-opacity="1" stop-color="rgb(41.108704%, 80.752563%, 40.112305%)" offset="0.835938"/><stop stop-opacity="1" stop-color="rgb(41.494751%, 80.953979%, 39.833069%)" offset="0.84375"/><stop stop-opacity="1" stop-color="rgb(41.880798%, 81.156921%, 39.553833%)" offset="0.851563"/><stop stop-opacity="1" stop-color="rgb(42.266846%, 81.358337%, 39.276123%)" offset="0.859375"/><stop stop-opacity="1" stop-color="rgb(42.652893%, 81.561279%, 38.996887%)" offset="0.867188"/><stop stop-opacity="1" stop-color="rgb(43.03894%, 81.762695%, 38.717651%)" offset="0.875"/><stop stop-opacity="1" stop-color="rgb(43.424988%, 81.965637%, 38.439941%)" offset="0.882812"/><stop stop-opacity="1" stop-color="rgb(43.811035%, 82.167053%, 38.160706%)" offset="0.890625"/><stop stop-opacity="1" stop-color="rgb(44.197083%, 82.369995%, 37.88147%)" offset="0.898438"/><stop stop-opacity="1" stop-color="rgb(44.58313%, 82.571411%, 37.60376%)" offset="0.90625"/><stop stop-opacity="1" stop-color="rgb(44.969177%, 82.774353%, 37.324524%)" offset="0.914062"/><stop stop-opacity="1" stop-color="rgb(45.355225%, 82.975769%, 37.045288%)" offset="0.921875"/><stop stop-opacity="1" stop-color="rgb(45.741272%, 83.178711%, 36.766052%)" offset="0.929688"/><stop stop-opacity="1" stop-color="rgb(46.127319%, 83.380127%, 36.488342%)" offset="0.9375"/><stop stop-opacity="1" stop-color="rgb(46.513367%, 83.583069%, 36.209106%)" offset="0.945312"/><stop stop-opacity="1" stop-color="rgb(46.899414%, 83.784485%, 35.929871%)" offset="0.953125"/><stop stop-opacity="1" stop-color="rgb(47.285461%, 83.987427%, 35.652161%)" offset="0.960938"/><stop stop-opacity="1" stop-color="rgb(47.671509%, 84.188843%, 35.372925%)" offset="0.96875"/><stop stop-opacity="1" stop-color="rgb(48.057556%, 84.391785%, 35.093689%)" offset="0.976562"/><stop stop-opacity="1" stop-color="rgb(48.443604%, 84.593201%, 34.815979%)" offset="0.984375"/><stop stop-opacity="1" stop-color="rgb(48.829651%, 84.796143%, 34.536743%)" offset="0.992188"/><stop stop-opacity="1" stop-color="rgb(49.215698%, 84.997559%, 34.257507%)" offset="1"/></linearGradient><clipPath id="903b10f1ea"><rect x="0" width="6" y="0" height="5"/></clipPath><clipPath id="9a96c53aef"><path d="M 0.5625 7 L 8.457031 7 L 8.457031 16 L 0.5625 16 Z M 0.5625 7 " clip-rule="nonzero"/></clipPath><clipPath id="102c6dfb04"><rect x="0" width="9" y="0" height="18"/></clipPath><clipPath id="af9e3ceaf4"><path d="M 8 0.414062 L 17 0.414062 L 17 18 L 8 18 Z M 8 0.414062 " clip-rule="nonzero"/></clipPath><clipPath id="59c64674e5"><path d="M 0.136719 4 L 8.730469 4 L 8.730469 13 L 0.136719 13 Z M 0.136719 4 " clip-rule="nonzero"/></clipPath><clipPath id="12580f77c1"><rect x="0" width="9" y="0" height="18"/></clipPath><clipPath id="701b48553d"><path d="M 16 0.414062 L 24 0.414062 L 24 19 L 16 19 Z M 16 0.414062 " clip-rule="nonzero"/></clipPath><clipPath id="8da77df9b8"><path d="M 0.265625 7 L 7 7 L 7 14 L 0.265625 14 Z M 0.265625 7 " clip-rule="nonzero"/></clipPath><clipPath id="d91ffaa3a5"><rect x="0" width="8" y="0" height="19"/></clipPath><clipPath id="47b145b949"><path d="M 26.070312 2.621094 L 31.125 2.621094 L 31.125 10.769531 L 26.070312 10.769531 Z M 26.070312 2.621094 " clip-rule="nonzero"/></clipPath><clipPath id="994c06480f"><path d="M 0.0703125 0.621094 L 5.125 0.621094 L 5.125 8.769531 L 0.0703125 8.769531 Z M 0.0703125 0.621094 " clip-rule="nonzero"/></clipPath><clipPath id="1274d72b23"><rect x="0" width="6" y="0" height="9"/></clipPath><clipPath id="f5bc04605d"><path d="M 23 0.414062 L 30 0.414062 L 30 18 L 23 18 Z M 23 0.414062 " clip-rule="nonzero"/></clipPath><clipPath id="7de0bfe3bf"><path d="M 0 7 L 6.503906 7 L 6.503906 13 L 0 13 Z M 0 7 " clip-rule="nonzero"/></clipPath><clipPath id="4eba5311c7"><rect x="0" width="7" y="0" height="18"/></clipPath><clipPath id="46f45545bd"><path d="M 33.855469 11.011719 L 35.972656 11.011719 L 35.972656 13.128906 L 33.855469 13.128906 Z M 33.855469 11.011719 " clip-rule="nonzero"/></clipPath><clipPath id="37f7efeca4"><path d="M 34.914062 11.011719 C 34.328125 11.011719 33.855469 11.484375 33.855469 12.070312 C 33.855469 12.652344 34.328125 13.128906 34.914062 13.128906 C 35.5 13.128906 35.972656 12.652344 35.972656 12.070312 C 35.972656 11.484375 35.5 11.011719 34.914062 11.011719 Z M 34.914062 11.011719 " clip-rule="nonzero"/></clipPath><clipPath id="0bd8010c44"><path d="M 0.855469 0.0117188 L 2.972656 0.0117188 L 2.972656 2.128906 L 0.855469 2.128906 Z M 0.855469 0.0117188 " clip-rule="nonzero"/></clipPath><clipPath id="765896fc26"><path d="M 1.914062 0.0117188 C 1.328125 0.0117188 0.855469 0.484375 0.855469 1.070312 C 0.855469 1.652344 1.328125 2.128906 1.914062 2.128906 C 2.5 2.128906 2.972656 1.652344 2.972656 1.070312 C 2.972656 0.484375 2.5 0.0117188 1.914062 0.0117188 Z M 1.914062 0.0117188 " clip-rule="nonzero"/></clipPath><clipPath id="4ee75999c7"><rect x="0" width="3" y="0" height="3"/></clipPath><clipPath id="8930f4ccc2"><rect x="0" width="44" y="0" height="21"/></clipPath></defs><g transform="matrix(1, 0, 0, 1, 25, 4)"><g clip-path="url(#8930f4ccc2)"><g clip-path="url(#269488f7b0)"><g clip-path="url(#52ffdb803d)"><g transform="matrix(1, 0, 0, 1, 0, 5)"><g clip-path="url(#6c41137220)"><g clip-path="url(#1d8232a8a6)"><g clip-path="url(#53a0f5b7cc)"><path fill="#849bff" d="M 0.804688 0.453125 L 8.378906 0.453125 L 8.378906 8.03125 L 0.804688 8.03125 Z M 0.804688 0.453125 " fill-opacity="1" fill-rule="nonzero"/></g></g></g></g></g></g><g clip-path="url(#bd4d8e1f2c)"><g transform="matrix(1, 0, 0, 1, 19, 10)"><g clip-path="url(#903b10f1ea)"><g clip-path="url(#d5d296e7dc)"><path fill="url(#1edb7d8b0b)" d="M 0.667969 0.132812 L 0.667969 4.003906 L 5.746094 4.003906 L 5.746094 0.132812 Z M 0.667969 0.132812 " fill-rule="nonzero"/></g></g></g></g><g transform="matrix(1, 0, 0, 1, 2, 1)"><g clip-path="url(#102c6dfb04)"><g clip-path="url(#9a96c53aef)"><g fill="#fff6ea" fill-opacity="1"><g transform="translate(0.773614, 13.797278)"><g><path d="M 4.78125 -6.59375 C 5.25 -6.59375 5.671875 -6.457031 6.046875 -6.1875 C 6.429688 -5.925781 6.734375 -5.570312 6.953125 -5.125 C 7.179688 -4.6875 7.296875 -4.195312 7.296875 -3.65625 C 7.296875 -3.125 7.171875 -2.632812 6.921875 -2.1875 C 6.671875 -1.75 6.335938 -1.394531 5.921875 -1.125 C 5.515625 -0.863281 5.078125 -0.734375 4.609375 -0.734375 C 4.191406 -0.734375 3.875 -0.769531 3.65625 -0.84375 C 3.445312 -0.925781 3.3125 -0.988281 3.25 -1.03125 C 3.269531 -0.582031 3.3125 -0.191406 3.375 0.140625 C 3.4375 0.484375 3.53125 0.722656 3.65625 0.859375 C 3.738281 0.941406 3.816406 1.003906 3.890625 1.046875 C 3.972656 1.085938 4.003906 1.164062 3.984375 1.28125 C 3.953125 1.445312 3.816406 1.570312 3.578125 1.65625 C 3.335938 1.738281 3.0625 1.796875 2.75 1.828125 C 2.445312 1.859375 2.179688 1.875 1.953125 1.875 C 1.742188 1.875 1.484375 1.859375 1.171875 1.828125 C 0.867188 1.796875 0.601562 1.738281 0.375 1.65625 C 0.144531 1.570312 0.0195312 1.445312 0 1.28125 C -0.0078125 1.15625 0.015625 1.066406 0.078125 1.015625 C 0.148438 0.960938 0.222656 0.898438 0.296875 0.828125 C 0.421875 0.710938 0.507812 0.503906 0.5625 0.203125 C 0.613281 -0.0859375 0.644531 -0.414062 0.65625 -0.78125 C 0.664062 -1.15625 0.671875 -1.507812 0.671875 -1.84375 C 0.671875 -2.375 0.664062 -2.847656 0.65625 -3.265625 C 0.644531 -3.691406 0.550781 -4.019531 0.375 -4.25 C 0.289062 -4.363281 0.203125 -4.460938 0.109375 -4.546875 C 0.0234375 -4.628906 -0.0078125 -4.734375 0 -4.859375 C 0.0195312 -5.023438 0.117188 -5.175781 0.296875 -5.3125 C 0.472656 -5.457031 0.675781 -5.582031 0.90625 -5.6875 C 1.132812 -5.800781 1.34375 -5.910156 1.53125 -6.015625 C 1.664062 -6.085938 1.84375 -6.175781 2.0625 -6.28125 C 2.289062 -6.382812 2.515625 -6.46875 2.734375 -6.53125 C 2.960938 -6.59375 3.15625 -6.609375 3.3125 -6.578125 C 3.46875 -6.546875 3.53125 -6.414062 3.5 -6.1875 C 3.894531 -6.457031 4.320312 -6.59375 4.78125 -6.59375 Z M 3.875 -1.53125 C 4.1875 -1.675781 4.425781 -1.910156 4.59375 -2.234375 C 4.757812 -2.566406 4.859375 -2.929688 4.890625 -3.328125 C 4.921875 -3.734375 4.898438 -4.125 4.828125 -4.5 C 4.765625 -4.875 4.660156 -5.179688 4.515625 -5.421875 C 4.367188 -5.660156 4.195312 -5.78125 4 -5.78125 C 3.832031 -5.78125 3.6875 -5.691406 3.5625 -5.515625 C 3.445312 -5.347656 3.382812 -5.175781 3.375 -5 C 3.320312 -4.632812 3.285156 -4.21875 3.265625 -3.75 C 3.242188 -3.289062 3.234375 -2.78125 3.234375 -2.21875 C 3.234375 -1.90625 3.320312 -1.703125 3.5 -1.609375 C 3.675781 -1.515625 3.800781 -1.488281 3.875 -1.53125 Z M 3.875 -1.53125 "/></g></g></g></g></g></g><g clip-path="url(#af9e3ceaf4)"><g transform="matrix(1, 0, 0, 1, 8, 0.000000000000006217)"><g clip-path="url(#12580f77c1)"><g clip-path="url(#59c64674e5)"><g fill="#fff6ea" fill-opacity="1"><g transform="translate(0.379453, 13.444929)"><g><path d="M 4.828125 -6.453125 C 5.265625 -6.453125 5.625 -6.351562 5.90625 -6.15625 C 6.195312 -5.957031 6.425781 -5.695312 6.59375 -5.375 C 6.769531 -5.0625 6.910156 -4.71875 7.015625 -4.34375 C 7.117188 -3.976562 7.207031 -3.617188 7.28125 -3.265625 C 7.351562 -2.910156 7.425781 -2.597656 7.5 -2.328125 C 7.570312 -2.066406 7.664062 -1.878906 7.78125 -1.765625 C 7.875 -1.691406 7.96875 -1.625 8.0625 -1.5625 C 8.164062 -1.507812 8.207031 -1.421875 8.1875 -1.296875 C 8.164062 -1.140625 8.070312 -1.019531 7.90625 -0.9375 C 7.738281 -0.851562 7.539062 -0.796875 7.3125 -0.765625 C 7.082031 -0.734375 6.859375 -0.71875 6.640625 -0.71875 C 6.421875 -0.71875 6.164062 -0.757812 5.875 -0.84375 C 5.582031 -0.925781 5.328125 -1.082031 5.109375 -1.3125 C 4.898438 -1.550781 4.796875 -1.894531 4.796875 -2.34375 L 4.796875 -4.625 C 4.796875 -5.03125 4.734375 -5.296875 4.609375 -5.421875 C 4.492188 -5.554688 4.347656 -5.578125 4.171875 -5.484375 C 4.003906 -5.398438 3.84375 -5.234375 3.6875 -4.984375 C 3.53125 -4.742188 3.40625 -4.441406 3.3125 -4.078125 C 3.21875 -3.722656 3.191406 -3.34375 3.234375 -2.9375 C 3.253906 -2.632812 3.296875 -2.375 3.359375 -2.15625 C 3.421875 -1.945312 3.492188 -1.800781 3.578125 -1.71875 C 3.660156 -1.632812 3.738281 -1.566406 3.8125 -1.515625 C 3.882812 -1.472656 3.910156 -1.398438 3.890625 -1.296875 C 3.867188 -1.140625 3.738281 -1.019531 3.5 -0.9375 C 3.269531 -0.851562 3.003906 -0.796875 2.703125 -0.765625 C 2.398438 -0.734375 2.132812 -0.71875 1.90625 -0.71875 C 1.695312 -0.71875 1.441406 -0.734375 1.140625 -0.765625 C 0.847656 -0.796875 0.585938 -0.851562 0.359375 -0.9375 C 0.140625 -1.019531 0.0195312 -1.140625 0 -1.296875 C -0.0078125 -1.410156 0.015625 -1.492188 0.078125 -1.546875 C 0.148438 -1.609375 0.222656 -1.675781 0.296875 -1.75 C 0.421875 -1.851562 0.503906 -2.050781 0.546875 -2.34375 C 0.597656 -2.632812 0.628906 -2.960938 0.640625 -3.328125 C 0.648438 -3.691406 0.65625 -4.03125 0.65625 -4.34375 C 0.65625 -4.875 0.648438 -5.34375 0.640625 -5.75 C 0.628906 -6.164062 0.535156 -6.484375 0.359375 -6.703125 C 0.285156 -6.816406 0.203125 -6.910156 0.109375 -6.984375 C 0.0234375 -7.066406 -0.0078125 -7.175781 0 -7.3125 C 0.0195312 -7.476562 0.113281 -7.625 0.28125 -7.75 C 0.457031 -7.882812 0.65625 -8.003906 0.875 -8.109375 C 1.101562 -8.222656 1.3125 -8.332031 1.5 -8.4375 C 1.644531 -8.507812 1.832031 -8.597656 2.0625 -8.703125 C 2.300781 -8.816406 2.535156 -8.90625 2.765625 -8.96875 C 2.992188 -9.03125 3.171875 -9.023438 3.296875 -8.953125 C 3.429688 -8.890625 3.46875 -8.726562 3.40625 -8.46875 C 3.382812 -8.382812 3.359375 -8.171875 3.328125 -7.828125 C 3.296875 -7.484375 3.265625 -7.0625 3.234375 -6.5625 C 3.203125 -6.070312 3.179688 -5.5625 3.171875 -5.03125 C 3.335938 -5.519531 3.585938 -5.878906 3.921875 -6.109375 C 4.265625 -6.335938 4.566406 -6.453125 4.828125 -6.453125 Z M 4.828125 -6.453125 "/></g></g></g></g></g></g></g><g clip-path="url(#701b48553d)"><g transform="matrix(1, 0, 0, 1, 16, 0.000000000000006217)"><g clip-path="url(#d91ffaa3a5)"><g clip-path="url(#8da77df9b8)"><g fill="#fff6ea" fill-opacity="1"><g transform="translate(0.329702, 14.555085)"><g><path d="M 6.015625 -3.546875 C 6.148438 -3.691406 6.269531 -3.734375 6.375 -3.671875 C 6.488281 -3.609375 6.535156 -3.5 6.515625 -3.34375 L 6.484375 -3.171875 C 6.378906 -2.710938 6.171875 -2.300781 5.859375 -1.9375 C 5.554688 -1.582031 5.179688 -1.300781 4.734375 -1.09375 C 4.285156 -0.882812 3.800781 -0.78125 3.28125 -0.78125 C 2.675781 -0.78125 2.125 -0.914062 1.625 -1.1875 C 1.132812 -1.46875 0.738281 -1.835938 0.4375 -2.296875 C 0.144531 -2.765625 0 -3.273438 0 -3.828125 C 0 -4.390625 0.144531 -4.898438 0.4375 -5.359375 C 0.738281 -5.828125 1.132812 -6.195312 1.625 -6.46875 C 2.125 -6.75 2.675781 -6.890625 3.28125 -6.890625 C 3.863281 -6.890625 4.398438 -6.773438 4.890625 -6.546875 C 5.378906 -6.328125 5.726562 -6.007812 5.9375 -5.59375 C 6.0625 -5.34375 6.078125 -5.070312 5.984375 -4.78125 C 5.890625 -4.488281 5.71875 -4.21875 5.46875 -3.96875 C 5.226562 -3.726562 4.941406 -3.53125 4.609375 -3.375 C 4.285156 -3.226562 3.957031 -3.15625 3.625 -3.15625 C 3.476562 -3.15625 3.328125 -3.164062 3.171875 -3.1875 C 3.023438 -3.207031 2.894531 -3.242188 2.78125 -3.296875 C 2.957031 -2.910156 3.226562 -2.660156 3.59375 -2.546875 C 3.96875 -2.441406 4.367188 -2.472656 4.796875 -2.640625 C 5.234375 -2.816406 5.640625 -3.117188 6.015625 -3.546875 Z M 3.28125 -6.203125 C 3.125 -6.203125 2.992188 -6.09375 2.890625 -5.875 C 2.796875 -5.65625 2.722656 -5.394531 2.671875 -5.09375 C 2.628906 -4.800781 2.609375 -4.523438 2.609375 -4.265625 C 2.609375 -4.085938 2.625 -3.914062 2.65625 -3.75 C 2.664062 -3.769531 2.703125 -3.796875 2.765625 -3.828125 C 3.035156 -3.984375 3.234375 -4.191406 3.359375 -4.453125 C 3.484375 -4.722656 3.554688 -4.988281 3.578125 -5.25 C 3.597656 -5.519531 3.578125 -5.742188 3.515625 -5.921875 C 3.460938 -6.109375 3.382812 -6.203125 3.28125 -6.203125 Z M 3.28125 -6.203125 "/></g></g></g></g></g></g></g><g clip-path="url(#47b145b949)"><g transform="matrix(1, 0, 0, 1, 26, 2)"><g clip-path="url(#1274d72b23)"><g clip-path="url(#994c06480f)"><path fill="#f6ff4a" d="M 0.0703125 0.621094 L 5.125 0.621094 L 5.125 8.777344 L 0.0703125 8.777344 Z M 0.0703125 0.621094 " fill-opacity="1" fill-rule="nonzero"/></g></g></g></g><g clip-path="url(#f5bc04605d)"><g transform="matrix(1, 0, 0, 1, 23, 0.000000000000006217)"><g clip-path="url(#4eba5311c7)"><g clip-path="url(#7de0bfe3bf)"><g fill="#fff6ea" fill-opacity="1"><g transform="translate(0.00233355, 13.56233)"><g><path d="M 5.671875 -3.328125 C 5.796875 -3.472656 5.910156 -3.515625 6.015625 -3.453125 C 6.117188 -3.390625 6.160156 -3.289062 6.140625 -3.15625 L 6.09375 -2.984375 C 6 -2.554688 5.804688 -2.171875 5.515625 -1.828125 C 5.234375 -1.492188 4.878906 -1.226562 4.453125 -1.03125 C 4.035156 -0.832031 3.578125 -0.734375 3.078125 -0.734375 C 2.515625 -0.734375 2 -0.863281 1.53125 -1.125 C 1.070312 -1.382812 0.703125 -1.726562 0.421875 -2.15625 C 0.140625 -2.59375 0 -3.070312 0 -3.59375 C 0 -4.125 0.140625 -4.609375 0.421875 -5.046875 C 0.703125 -5.484375 1.070312 -5.832031 1.53125 -6.09375 C 2 -6.351562 2.515625 -6.484375 3.078125 -6.484375 C 3.628906 -6.484375 4.132812 -6.378906 4.59375 -6.171875 C 5.050781 -5.960938 5.382812 -5.660156 5.59375 -5.265625 C 5.707031 -5.023438 5.71875 -4.769531 5.625 -4.5 C 5.539062 -4.226562 5.382812 -3.976562 5.15625 -3.75 C 4.925781 -3.519531 4.65625 -3.332031 4.34375 -3.1875 C 4.03125 -3.039062 3.722656 -2.96875 3.421875 -2.96875 C 3.273438 -2.96875 3.128906 -2.976562 2.984375 -3 C 2.847656 -3.019531 2.726562 -3.050781 2.625 -3.09375 C 2.789062 -2.726562 3.046875 -2.492188 3.390625 -2.390625 C 3.734375 -2.296875 4.109375 -2.328125 4.515625 -2.484375 C 4.929688 -2.648438 5.316406 -2.929688 5.671875 -3.328125 Z M 3.078125 -5.828125 C 2.941406 -5.828125 2.828125 -5.722656 2.734375 -5.515625 C 2.640625 -5.316406 2.566406 -5.078125 2.515625 -4.796875 C 2.472656 -4.515625 2.453125 -4.253906 2.453125 -4.015625 C 2.453125 -3.847656 2.46875 -3.6875 2.5 -3.53125 C 2.507812 -3.550781 2.546875 -3.570312 2.609375 -3.59375 C 2.859375 -3.75 3.039062 -3.953125 3.15625 -4.203125 C 3.269531 -4.453125 3.335938 -4.703125 3.359375 -4.953125 C 3.390625 -5.203125 3.375 -5.410156 3.3125 -5.578125 C 3.257812 -5.742188 3.179688 -5.828125 3.078125 -5.828125 Z M 3.078125 -5.828125 "/></g></g></g></g></g></g></g><g fill="#fdb515" fill-opacity="1"><g transform="translate(27.702806, 13.069643)"><g><path d="M 6.625 -8.140625 L 9.78125 -8.140625 L 9.78125 -8.046875 C 9.476562 -8.003906 9.175781 -7.890625 8.875 -7.703125 C 8.582031 -7.523438 8.3125 -7.304688 8.0625 -7.046875 C 7.820312 -6.796875 7.640625 -6.53125 7.515625 -6.25 L 4 1.109375 C 3.84375 1.453125 3.769531 1.800781 3.78125 2.15625 C 3.800781 2.507812 3.898438 2.828125 4.078125 3.109375 C 4.253906 3.390625 4.492188 3.609375 4.796875 3.765625 C 5.015625 3.859375 5.25 3.90625 5.5 3.90625 C 5.6875 3.90625 5.78125 3.804688 5.78125 3.609375 C 5.78125 3.472656 5.71875 3.335938 5.59375 3.203125 C 5.46875 3.078125 5.335938 2.929688 5.203125 2.765625 C 5.066406 2.597656 5 2.390625 5 2.140625 C 5 1.785156 5.125 1.476562 5.375 1.21875 C 5.632812 0.96875 5.9375 0.84375 6.28125 0.84375 C 6.632812 0.84375 6.9375 0.96875 7.1875 1.21875 C 7.445312 1.476562 7.578125 1.785156 7.578125 2.140625 C 7.578125 2.453125 7.488281 2.742188 7.3125 3.015625 C 7.132812 3.285156 6.898438 3.507812 6.609375 3.6875 C 6.328125 3.863281 6.019531 3.96875 5.6875 4 C 5.351562 4.039062 5.035156 3.988281 4.734375 3.84375 C 4.421875 3.6875 4.171875 3.457031 3.984375 3.15625 C 3.804688 2.851562 3.707031 2.519531 3.6875 2.15625 C 3.664062 1.789062 3.738281 1.429688 3.90625 1.078125 L 4.421875 0 L 0.890625 -7.40625 C 0.816406 -7.5625 0.703125 -7.703125 0.546875 -7.828125 C 0.390625 -7.960938 0.234375 -8.035156 0.078125 -8.046875 L 0.078125 -8.140625 L 2.921875 -8.140625 C 3.203125 -8.140625 3.398438 -8.03125 3.515625 -7.8125 L 5.828125 -2.953125 L 7.515625 -6.46875 C 7.578125 -6.625 7.609375 -6.785156 7.609375 -6.953125 C 7.609375 -7.234375 7.515625 -7.476562 7.328125 -7.6875 C 7.140625 -7.894531 6.90625 -8.015625 6.625 -8.046875 Z M 6.625 -8.140625 "/></g></g></g><g fill="#fff6ea" fill-opacity="1"><g transform="translate(34.914448, 16.168749)"><g><path d="M 7.390625 -1.25 C 7.390625 -1.039062 7.457031 -0.859375 7.59375 -0.703125 C 7.726562 -0.554688 7.890625 -0.46875 8.078125 -0.4375 L 8.078125 -0.328125 L 5.21875 0.078125 C 5.21875 0.078125 5.210938 0.078125 5.203125 0.078125 C 5.203125 0.078125 5.195312 0.078125 5.1875 0.078125 C 5.113281 0.078125 5.046875 0.0507812 4.984375 0 C 4.921875 -0.0625 4.890625 -0.132812 4.890625 -0.21875 L 4.890625 -0.625 C 4.691406 -0.488281 4.421875 -0.335938 4.078125 -0.171875 C 3.742188 -0.00390625 3.347656 0.078125 2.890625 0.078125 C 2.367188 0.078125 1.894531 -0.0546875 1.46875 -0.328125 C 1.050781 -0.609375 0.78125 -0.976562 0.65625 -1.4375 C 0.53125 -1.914062 0.582031 -2.378906 0.8125 -2.828125 C 1.039062 -3.285156 1.382812 -3.648438 1.84375 -3.921875 C 2.125 -4.097656 2.484375 -4.265625 2.921875 -4.421875 C 3.367188 -4.585938 3.835938 -4.75 4.328125 -4.90625 C 4.816406 -5.070312 5.269531 -5.238281 5.6875 -5.40625 C 6.113281 -5.582031 6.460938 -5.769531 6.734375 -5.96875 C 7.003906 -6.175781 7.140625 -6.410156 7.140625 -6.671875 C 7.140625 -6.890625 7.039062 -7.109375 6.84375 -7.328125 C 6.65625 -7.546875 6.429688 -7.722656 6.171875 -7.859375 C 5.847656 -8.015625 5.492188 -8.117188 5.109375 -8.171875 C 4.722656 -8.222656 4.320312 -8.21875 3.90625 -8.15625 C 3.28125 -8.070312 2.96875 -7.863281 2.96875 -7.53125 C 2.96875 -7.332031 3.023438 -7.160156 3.140625 -7.015625 C 3.265625 -6.867188 3.382812 -6.710938 3.5 -6.546875 C 3.625 -6.390625 3.6875 -6.1875 3.6875 -5.9375 C 3.6875 -5.582031 3.554688 -5.28125 3.296875 -5.03125 C 3.046875 -4.78125 2.742188 -4.65625 2.390625 -4.65625 C 2.035156 -4.65625 1.734375 -4.78125 1.484375 -5.03125 C 1.234375 -5.28125 1.109375 -5.582031 1.109375 -5.9375 C 1.109375 -6.363281 1.253906 -6.738281 1.546875 -7.0625 C 1.847656 -7.394531 2.21875 -7.660156 2.65625 -7.859375 C 3.09375 -8.066406 3.503906 -8.195312 3.890625 -8.25 C 4.773438 -8.382812 5.550781 -8.28125 6.21875 -7.9375 C 6.539062 -7.78125 6.816406 -7.5625 7.046875 -7.28125 C 7.273438 -7 7.390625 -6.65625 7.390625 -6.25 Z M 4.890625 -0.75 L 4.890625 -5 C 4.671875 -4.90625 4.425781 -4.769531 4.15625 -4.59375 C 3.882812 -4.425781 3.648438 -4.195312 3.453125 -3.90625 C 3.253906 -3.613281 3.132812 -3.234375 3.09375 -2.765625 C 3.070312 -2.367188 3.101562 -2.019531 3.1875 -1.71875 C 3.28125 -1.414062 3.414062 -1.171875 3.59375 -0.984375 C 3.78125 -0.785156 4 -0.660156 4.25 -0.609375 C 4.5 -0.566406 4.710938 -0.613281 4.890625 -0.75 Z M 4.890625 -0.75 "/></g></g></g><g clip-path="url(#46f45545bd)"><g clip-path="url(#37f7efeca4)"><g transform="matrix(1, 0, 0, 1, 33, 11)"><g clip-path="url(#4ee75999c7)"><g clip-path="url(#0bd8010c44)"><g clip-path="url(#765896fc26)"><path fill="#ffffff" d="M 0.855469 0.0117188 L 2.972656 0.0117188 L 2.972656 2.128906 L 0.855469 2.128906 Z M 0.855469 0.0117188 " fill-opacity="1" fill-rule="nonzero"/></g></g></g></g></g></g></g></g></svg>